#!OML:ASF I:\Actors\actors\Patient Classification 1\Patient 1\Session 1\Subject1.ASF
:FULLY-SPECIFIED
:DEGREES
764
root 0.724854 17.5226 8.97895 10.4488 -4.71806 -9.79737
lowerback 0.552356 2.03332 5.08525
upperback -6.84552 3.08017 1.89952
thorax -7.31706 1.27853 -1.05531
lowerneck -18.8466 -4.15679 -1.94652
upperneck 26.8814 -7.76421 7.74854
head 12.4607 -2.64654 1.99981
rclavicle 9.14409e-015 5.28767e-014
rhumerus 1.49164 29.6948 -93.2779
rradius 56.2449
rwrist -39.4034
rhand 0.162766 -52.4571
rfingers 7.12502
rthumb 25.7463 -440.735
lclavicle 9.14409e-015 5.28767e-014
lhumerus 0.86337 -19.0847 98.5415
lradius 48.7251
lwrist 65.9622
lhand -51.5388 5.60246
lfingers 7.12502
lthumb -24.0653 34.1135
rfemur -7.11955 25.2503 24.646
rtibia 2.32013
rfoot -9.4914 -22.1035
rtoes -0.0370781
lfemur 6.05223 -49.4366 -12.5469
ltibia -4.88254
lfoot -32.7108 58.0099
ltoes 19.6867
765
root 0.722618 17.5229 8.9774 10.4868 -4.52786 -9.87398
lowerback 0.576225 1.9678 5.15391
upperback -6.83746 3.00181 1.97926
thorax -7.32833 1.23823 -1.00583
lowerneck -18.7591 -4.17311 -1.96345
upperneck 26.7723 -7.74644 7.67137
head 12.3941 -2.65642 1.97586
rclavicle 1.39149e-015 1.66979e-014
rhumerus 1.65611 30.4027 -93.3083
rradius 58.2181
rwrist -40.5108
rhand -3.56947 -54.1288
rfingers 7.12502
rthumb 22.1673 -442.878
lclavicle 1.39149e-015 1.66979e-014
lhumerus 0.766811 -20.0427 99.1228
lradius 50.441
lwrist 66.7076
lhand -53.6019 5.86886
lfingers 7.12502
lthumb -26.0422 34.1039
rfemur -7.13439 25.2269 24.7318
rtibia 2.28758
rfoot -9.54017 -22.218
rtoes 0.0271833
lfemur 5.88027 -49.4734 -12.2921
ltibia -4.89153
lfoot -32.4638 57.9415
ltoes 19.4936
766
root 0.719816 17.523 8.97359 10.5358 -4.3562 -9.88398
lowerback 0.621517 1.89041 5.12837
upperback -6.79606 2.90285 2.054
thorax -7.32015 1.19422 -0.908412
lowerneck -18.7377 -4.18293 -1.90826
upperneck 26.5827 -7.70691 7.50368
head 12.3 -2.66158 1.90698
rclavicle -1.93815e-014 9.14409e-015
rhumerus 2.16103 30.9409 -92.9879
rradius 60.1761
rwrist -39.3373
rhand -7.05043 -56.7943
rfingers 7.12502
rthumb 18.8223 -445.904
lclavicle -1.93815e-014 9.14409e-015
lhumerus 1.04593 -20.3303 99.4266
lradius 52.4235
lwrist 64.6406
lhand -54.4339 5.8424
lfingers 7.12502
lthumb -26.8386 33.9577
rfemur -7.15509 25.3183 24.7251
rtibia 2.21188
rfoot -9.64486 -22.4166
rtoes 0.402073
lfemur 5.78586 -49.8124 -12.2056
ltibia -4.86391
lfoot -32.7808 58.0717
ltoes 19.6014
767
root 0.716194 17.5227 8.96944 10.6086 -4.20774 -9.88833
lowerback 0.659592 1.8262 5.1002
upperback -6.72415 2.81891 2.12258
thorax -7.27339 1.15887 -0.81625
lowerneck -18.8257 -4.19622 -1.93139
upperneck 26.3708 -7.67734 7.43898
head 12.2293 -2.66312 1.8871
rclavicle -6.36111e-015 3.57812e-014
rhumerus 2.93844 31.3868 -92.2161
rradius 62.3011
rwrist -36.9387
rhand -8.95023 -58.9266
rfingers 7.12502
rthumb 16.9943 -448.203
lclavicle -6.36111e-015 3.57812e-014
lhumerus 1.4369 -20.9095 99.3433
lradius 54.9436
lwrist 62.1734
lhand -55.6539 4.77205
lfingers 7.12502
lthumb -28.0054 32.7025
rfemur -7.18843 25.4644 24.7089
rtibia 2.11152
rfoot -9.68631 -22.6599
rtoes 0.553867
lfemur 5.75566 -50.4099 -12.1944
ltibia -4.81901
lfoot -33.6053 58.3908
ltoes 19.9828
768
root 0.711279 17.5243 8.96448 10.6508 -4.07086 -9.87306
lowerback 0.787708 1.76429 5.06601
upperback -6.676 2.7435 2.1554
thorax -7.30245 1.12463 -0.762014
lowerneck -18.8015 -4.20449 -2.02776
upperneck 26.1633 -7.66101 7.51696
head 12.1495 -2.66225 1.93315
rclavicle -1.09332e-015 -5.96354e-015
rhumerus 3.72517 31.5018 -91.2336
rradius 64.6269
rwrist -33.9978
rhand -9.23463 -59.4273
rfingers 7.12502
rthumb 16.7206 -448.727
lclavicle -1.09332e-015 -5.96354e-015
lhumerus 1.79969 -21.8604 98.8216
lradius 57.9047
lwrist 59.9967
lhand -56.4814 -1.06193
lfingers 7.12502
lthumb -28.7962 26.7367
rfemur -7.19069 25.6311 24.6889
rtibia 2.01628
rfoot -9.69819 -22.9405
rtoes 0.499858
lfemur 5.7169 -50.8879 -12.1764
ltibia -4.79516
lfoot -33.9436 58.682
ltoes 20.039
769
root 0.705519 17.5272 8.95888 10.6895 -3.97067 -9.86295
lowerback 0.963086 1.72064 5.04503
upperback -6.66773 2.69702 2.16013
thorax -7.39889 1.1008 -0.748126
lowerneck -18.7884 -4.24219 -2.15126
upperneck 26.1727 -7.71015 7.62714
head 12.1644 -2.6824 1.98775
rclavicle -1.36416e-014 5.12864e-014
rhumerus 4.47943 31.4154 -90.1225
rradius 67.2396
rwrist -31.1876
rhand -9.77662 -58.2643
rfingers 7.12502
rthumb 16.1987 -447.608
lclavicle -1.36416e-014 5.12864e-014
lhumerus 2.28996 -22.6152 97.9181
lradius 61.3325
lwrist 56.9446
lhand -56.341 -0.789195
lfingers 7.12502
lthumb -28.662 27.0322
rfemur -7.20423 25.8655 24.6673
rtibia 1.94213
rfoot -9.77306 -23.2301
rtoes 0.854407
lfemur 5.6341 -51.1749 -12.0867
ltibia -4.81225
lfoot -33.8263 58.8931
ltoes 19.8291
770
root 0.698746 17.5226 8.95464 10.6705 -3.80787 -10.4177
lowerback 1.23881 1.70733 5.65375
upperback -6.65655 2.73957 2.29378
thorax -7.53228 1.08568 -0.957136
lowerneck -18.6929 -4.34577 -2.17003
upperneck 26.1751 -7.86386 7.65832
head 12.158 -2.7515 1.97862
rclavicle -8.89561e-015 7.15625e-015
rhumerus 5.28723 31.4849 -88.7487
rradius 70.1898
rwrist -28.6812
rhand -11.0012 -56.5701
rfingers 7.12502
rthumb 15.0193 -446.005
lclavicle -8.89561e-015 7.15625e-015
lhumerus 2.84848 -23.7187 96.6864
lradius 64.8067
lwrist 53.5307
lhand -55.6099 -3.42859
lfingers 7.12502
lthumb -27.9633 24.5087
rfemur -7.05892 26.1341 25.3999
rtibia 1.90599
rfoot -9.90278 -23.482
rtoes 1.46414
lfemur 5.77521 -51.2009 -11.4188
ltibia -5.03558
lfoot -33.5145 58.9711
ltoes 19.5682
771
root 0.693905 17.5177 8.94529 10.6292 -3.78163 -10.7011
lowerback 1.67578 1.72132 6.03136
upperback -6.69528 2.81922 2.30527
thorax -7.81368 1.09307 -1.17495
lowerneck -18.5804 -4.58785 -2.29539
upperneck 26.2032 -8.198 7.7246
head 12.1763 -2.90729 1.97124
rclavicle -2.33572e-014 1.86858e-014
rhumerus 6.14479 31.5748 -87.3181
rradius 73.2753
rwrist -25.981
rhand -11.5536 -55.1538
rfingers 7.12502
rthumb 14.4872 -444.628
lclavicle -2.33572e-014 1.86858e-014
lhumerus 3.46453 -24.9651 95.1598
lradius 68.3289
lwrist 49.5845
lhand -54.3248 -6.6776
lfingers 7.12502
lthumb -26.7342 21.4537
rfemur -6.98562 26.4375 25.7713
rtibia 1.91471
rfoot -10.006 -23.6931
rtoes 1.8777
lfemur 6.00151 -51.5382 -11.2105
ltibia -5.12004
lfoot -34.285 59.1564
ltoes 20.1112
772
root 0.693824 17.5239 8.9241 10.7713 -4.21744 -9.46349
lowerback 2.02099 1.78299 4.84319
upperback -6.82874 2.83475 1.85866
thorax -8.17789 1.14895 -1.00121
lowerneck -18.4662 -4.70135 -2.26469
upperneck 26.2713 -8.36805 7.68587
head 12.1873 -2.9867 1.92588
rclavicle -4.22417e-016 -5.96354e-015
rhumerus 7.19085 31.6977 -85.9737
rradius 76.3367
rwrist -22.986
rhand -11.8559 -53.7879
rfingers 7.12502
rthumb 14.1959 -443.283
lclavicle -4.22417e-016 -5.96354e-015
lhumerus 4.28034 -26.0686 93.3528
lradius 71.6976
lwrist 44.8642
lhand -53.8863 -11.7011
lfingers 7.12502
lthumb -26.3145 16.4936
rfemur -7.54931 26.7467 24.0067
rtibia 2.016
rfoot -10.0236 -23.7871
rtoes 2.16286
lfemur 5.62497 -52.3807 -12.5298
ltibia -4.69072
lfoot -36.6201 59.5234
ltoes 21.6294
773
root 0.693518 17.5333 8.94192 11.2608 -3.9839 -9.36877
lowerback 1.3362 1.69019 4.85331
upperback -6.87983 2.6632 1.83778
thorax -7.83885 1.0712 -0.991943
lowerneck -18.2338 -4.68535 -2.27344
upperneck 26.2164 -8.32015 7.63307
head 12.1124 -2.98181 1.91895
rclavicle 1.13556e-014 2.34566e-014
rhumerus 8.44226 32.0571 -84.4076
rradius 79.3019
rwrist -19.6881
rhand -12.7714 -52.0777
rfingers 7.12502
rthumb 13.3136 -441.632
lclavicle 1.13556e-014 2.34566e-014
lhumerus 5.31841 -26.8564 91.5548
lradius 74.7365
lwrist 39.1822
lhand -53.3496 -15.9512
lfingers 7.12502
lthumb -25.8006 12.3192
rfemur -7.94916 26.5425 23.703
rtibia 1.7744
rfoot -9.94642 -23.8153
rtoes 2.24161
lfemur 4.64352 -52.3193 -11.8518
ltibia -4.66566
lfoot -36.1076 59.4761
ltoes 21.2372
